<svg width="15" height="15" viewBox="0 0 15 15" fill="none"
	xmlns="http://www.w3.org/2000/svg">
	<path d="M12.6562 4.6125C12.4688 2.34375 11.1141 1.00781 8.90625 0.9375H5.15625C4.90761 0.9375 4.66915 1.03627 4.49334 1.21209C4.31752 1.3879 4.21875 1.62636 4.21875 1.875V7.03125H3.28125C3.03261 7.03125 2.79415 7.13002 2.61834 7.30584C2.44252 7.48165 2.34375 7.72011 2.34375 7.96875C2.34375 8.21739 2.44252 8.45585 2.61834 8.63166C2.79415 8.80748 3.03261 8.90625 3.28125 8.90625H4.21875V9.84375H3.28125C3.03261 9.84375 2.79415 9.94252 2.61834 10.1183C2.44252 10.2942 2.34375 10.5326 2.34375 10.7812C2.34375 11.0299 2.44252 11.2683 2.61834 11.4442C2.79415 11.62 3.03261 11.7188 3.28125 11.7188H4.21875V13.125C4.21875 13.3736 4.31752 13.6121 4.49334 13.7879C4.66915 13.9637 4.90761 14.0625 5.15625 14.0625C5.40489 14.0625 5.64335 13.9637 5.81916 13.7879C5.99498 13.6121 6.09375 13.3736 6.09375 13.125V8.90625H8.93906C11.1281 8.83594 12.5531 7.41563 12.6562 5.15625V4.6875C12.6562 4.66406 12.6562 4.63594 12.6562 4.6125ZM8.90625 7.03125H6.09375V2.8125H8.87344C10.0781 2.85 10.6641 3.44531 10.7812 4.72969V5.11406C10.725 6.36562 10.1016 6.99375 8.90625 7.03125Z" fill="#222222"/>
	<path d="M9.84375 9.84375H7.5C7.25136 9.84375 7.0129 9.94252 6.83709 10.1183C6.66127 10.2942 6.5625 10.5326 6.5625 10.7812C6.5625 11.0299 6.66127 11.2683 6.83709 11.4442C7.0129 11.62 7.25136 11.7188 7.5 11.7188H9.84375C10.0924 11.7188 10.3308 11.62 10.5067 11.4442C10.6825 11.2683 10.7812 11.0299 10.7812 10.7812C10.7812 10.5326 10.6825 10.2942 10.5067 10.1183C10.3308 9.94252 10.0924 9.84375 9.84375 9.84375Z" fill="#222222"/>
</svg>
