<svg width="182" height="25" viewBox="0 0 182 25" fill="none"
	xmlns="http://www.w3.org/2000/svg">
	<path d="M14.0192 0.000229435V13.9303C14.0192 16.1836 13.543 17.8566 12.5905 18.9492C12.0845 19.5979 11.385 20.0759 10.4921 20.3832V24.3778C11.2064 24.2754 11.8315 24.1047 12.3673 23.8657C13.4686 23.4218 14.4211 22.7561 15.2247 21.8684C16.0284 20.8783 16.6237 19.7345 17.0106 18.4371C17.4571 17.1056 17.6803 15.535 17.6803 13.7255V0L14.0192 0.000229435ZM3.61648 0.0513609V13.9814C3.61648 16.1665 4.09273 17.8395 5.04519 19.0003C5.61074 19.6491 6.31023 20.1099 7.14368 20.3831V24.429C6.6377 24.3607 6.01266 24.19 5.26847 23.9169C4.13744 23.4389 3.19981 22.7561 2.45567 21.8684C1.62222 20.9808 1.01204 19.854 0.625091 18.4883C0.208398 17.2592 0 15.6886 0 13.7767V0.0511839L3.61648 0.0513609ZM38.1016 10.1918V0.000229435H34.3513V24.4804H38.1016V10.1918ZM54.4159 24.429H58.1216V11.3696L54.4159 5.37761V24.429ZM69.239 0.0513609V16.9005L58.7471 0.0513609H54.7288L69.8195 24.4292H72.9001V0.0513609H69.239ZM84.794 0.000229435H80.7757L88.5444 24.4292H92.6074L88.098 9.78206L84.794 0.000229435ZM101.224 0.000229435H97.295L92.6516 13.0086L94.5715 18.8469L101.224 0.000229435ZM110.573 0.0513609H126.468V3.94358H110.573V0.0513609ZM110.573 20.5368H126.423V24.429H110.573V20.5368ZM110.573 10.1918H124.905V14.0328H110.573V10.1918ZM148.765 0.0513609C147.128 0.0513609 145.61 0.358543 144.211 0.973103C142.841 1.58766 141.651 2.44123 140.639 3.5338C139.657 4.55807 138.883 5.85543 138.317 7.42602C137.841 8.7576 137.573 10.2086 137.513 11.7791V13.3156H141.442V11.7791C141.502 10.6183 141.666 9.6794 141.934 8.96239C142.291 7.97227 142.782 7.08462 143.407 6.29936C144.151 5.5141 144.925 4.93369 145.729 4.55814C146.651 4.14843 147.663 3.94358 148.765 3.94358H154.39V0.0513609H148.765ZM150.461 11.5743L150.461 12.5473H150.506C150.447 13.6398 150.268 14.647 149.97 15.5689C149.583 16.6273 149.092 17.4979 148.497 18.1808C147.842 18.932 147.068 19.5124 146.175 19.9221C145.253 20.3318 144.241 20.5366 143.139 20.5366H137.514V24.4288H143.139C144.776 24.4288 146.294 24.1216 147.693 23.507C149.063 22.8924 150.253 22.0388 151.265 20.9463C152.307 19.7513 153.081 18.4539 153.587 17.0541C154.123 15.6884 154.39 14.1862 154.39 12.5474V11.5743H150.461ZM175.258 4.04617H182V0.051492H164.766V4.04617H175.258ZM171.508 8.04097H175.258V24.4292H171.508V8.04097Z" fill="#222222"/>
</svg>
