<svg width="11" height="11" viewBox="0 0 11 11" fill="none"
	xmlns="http://www.w3.org/2000/svg">
	<path d="M5.53149 0.72168C2.77024 0.72168 0.531494 2.96043 0.531494 5.72168C0.531494 8.48293 2.77024 10.7217 5.53149 10.7217C8.29274 10.7217 10.5315 8.48293 10.5315 5.72168C10.5315 2.96043 8.29274 0.72168 5.53149 0.72168ZM5.94816 8.22168H5.11483V5.30501H5.94816V8.22168ZM5.53149 4.26335C5.18649 4.26335 4.90649 3.98335 4.90649 3.63835C4.90649 3.29335 5.18649 3.01335 5.53149 3.01335C5.87649 3.01335 6.15649 3.29335 6.15649 3.63835C6.15649 3.98335 5.87649 4.26335 5.53149 4.26335Z" fill="#EDEDED"/>
</svg>
