<svg width="154" height="154" viewBox="0 0 154 154" fill="none" xmlns="http://www.w3.org/2000/svg">
<path d="M9.625 144.375H154V154H0V0H19.25V9.625H9.625V28.875H19.25V38.5H9.625V57.75H19.25V67.375H9.625V86.625H19.25V96.25H9.625V115.5H19.25V125.125H9.625V144.375ZM119.908 62.7453C119.355 71.249 118.657 81.8125 115.5 81.8125C109.869 81.8125 108.329 78.7518 105.63 70.6668C103.132 63.1833 99.7198 52.9375 86.625 52.9375C72.919 52.9375 70.0171 70.4213 67.4472 85.8357C65.5992 96.9093 63.3084 110.688 57.75 110.688C47.9277 110.688 43.3317 84.8396 43.3125 67.375H33.6875C33.6875 72.7891 34.3709 120.312 57.75 120.312C71.4608 120.312 74.3627 102.838 76.9326 87.4094C78.7854 76.3359 81.0714 62.5625 86.625 62.5625C92.2556 62.5625 93.7956 65.6184 96.4954 73.7034C98.9979 81.1917 102.41 91.4375 115.5 91.4375C127.671 91.4375 128.619 77.1636 129.514 63.3902C131.025 40.3624 133.658 24.0625 154 24.0625V14.4375C123.065 14.4375 121.169 43.5146 119.908 62.7453Z" fill="#EEEEEE"/>
</svg>
