<svg width="9" height="9" viewBox="0 0 9 9" fill="none"
	xmlns="http://www.w3.org/2000/svg">
	<mask id="path-1-inside-1" fill="white">
		<path d="M6.5985 8.48247C5.84442 8.85721 5.07588 9 4.15657 9C1.90685 9 0 7.448 0 4.96536C0 2.30156 1.96155 0 5.00782 0C7.39476 0 9 1.57769 9 3.73715C9 5.67656 7.84723 6.81424 6.55816 6.81424C6.00853 6.81424 5.50136 6.46519 5.5428 5.67665H5.4881C5.00791 6.43941 4.37668 6.81424 3.55344 6.81424C2.75809 6.81424 2.07225 6.2066 2.07225 5.18542C2.07225 3.58186 3.41603 2.1204 5.32288 2.1204C5.91257 2.1204 6.4342 2.23672 6.79061 2.3921L6.32479 4.73264C6.11923 5.71554 6.28335 6.16771 6.73582 6.18099C7.43612 6.19366 8.2181 5.3145 8.2181 3.81458C8.2181 1.93941 7.02417 0.594965 4.89712 0.594965C2.66195 0.594965 0.781896 2.26267 0.781896 4.88802C0.781896 7.04748 2.27763 8.37891 4.30733 8.37891C5.08932 8.37891 5.81651 8.22413 6.3794 7.92665L6.5985 8.48247ZM5.84451 2.89644C5.70701 2.85747 5.47364 2.8059 5.15876 2.8059C3.9512 2.8059 2.9771 3.87934 2.9771 5.13333C2.9771 5.70243 3.27871 6.11615 3.88296 6.11615C4.67839 6.11615 5.40549 5.15911 5.55625 4.35781L5.84451 2.89644Z"/>
	</mask>
	<path d="M6.5985 8.48247C5.84442 8.85721 5.07588 9 4.15657 9C1.90685 9 0 7.448 0 4.96536C0 2.30156 1.96155 0 5.00782 0C7.39476 0 9 1.57769 9 3.73715C9 5.67656 7.84723 6.81424 6.55816 6.81424C6.00853 6.81424 5.50136 6.46519 5.5428 5.67665H5.4881C5.00791 6.43941 4.37668 6.81424 3.55344 6.81424C2.75809 6.81424 2.07225 6.2066 2.07225 5.18542C2.07225 3.58186 3.41603 2.1204 5.32288 2.1204C5.91257 2.1204 6.4342 2.23672 6.79061 2.3921L6.32479 4.73264C6.11923 5.71554 6.28335 6.16771 6.73582 6.18099C7.43612 6.19366 8.2181 5.3145 8.2181 3.81458C8.2181 1.93941 7.02417 0.594965 4.89712 0.594965C2.66195 0.594965 0.781896 2.26267 0.781896 4.88802C0.781896 7.04748 2.27763 8.37891 4.30733 8.37891C5.08932 8.37891 5.81651 8.22413 6.3794 7.92665L6.5985 8.48247ZM5.84451 2.89644C5.70701 2.85747 5.47364 2.8059 5.15876 2.8059C3.9512 2.8059 2.9771 3.87934 2.9771 5.13333C2.9771 5.70243 3.27871 6.11615 3.88296 6.11615C4.67839 6.11615 5.40549 5.15911 5.55625 4.35781L5.84451 2.89644Z" fill="#EDEDED"/>
	<path d="M6.5985 8.48247L7.04353 9.37798L7.8654 8.96956L7.52883 8.11574L6.5985 8.48247ZM5.5428 5.67665L6.54143 5.72913L6.59674 4.67665H5.5428V5.67665ZM5.4881 5.67665V4.67665H4.93598L4.64183 5.14389L5.4881 5.67665ZM6.79061 2.3921L7.77138 2.5873L7.9286 1.79732L7.19025 1.47543L6.79061 2.3921ZM6.32479 4.73264L7.30366 4.93735L7.30556 4.92783L6.32479 4.73264ZM6.73582 6.18099L6.70647 7.18062L6.71772 7.18083L6.73582 6.18099ZM6.3794 7.92665L7.30973 7.55992L6.89999 6.52046L5.91215 7.04253L6.3794 7.92665ZM5.84451 2.89644L6.82561 3.08997L7.00397 2.1857L6.11723 1.93435L5.84451 2.89644ZM5.55625 4.35781L4.57512 4.16428L4.57349 4.17291L5.55625 4.35781ZM6.15348 7.58695C5.5697 7.87705 4.96171 8 4.15657 8V10C5.19005 10 6.11914 9.83736 7.04353 9.37798L6.15348 7.58695ZM4.15657 8C2.38045 8 1 6.82019 1 4.96536H-1C-1 8.07582 1.43325 10 4.15657 10V8ZM1 4.96536C1 2.81403 2.55283 1 5.00782 1V-1C1.37028 -1 -1 1.78909 -1 4.96536H1ZM5.00782 1C5.97774 1 6.71904 1.31735 7.21045 1.78395C7.69929 2.24811 8 2.91463 8 3.73715H10C10 2.40022 9.4981 1.19815 8.58758 0.333604C7.67963 -0.528507 6.42484 -1 5.00782 -1V1ZM8 3.73715C8 5.27947 7.1516 5.81424 6.55816 5.81424V7.81424C8.54287 7.81424 10 6.07366 10 3.73715H8ZM6.55816 5.81424C6.5252 5.81424 6.50706 5.80886 6.50277 5.8073C6.49986 5.80624 6.51159 5.81016 6.52745 5.82565C6.53499 5.83302 6.54116 5.84081 6.54564 5.84789C6.55012 5.85495 6.55118 5.85855 6.55045 5.85646C6.54919 5.85286 6.53688 5.81564 6.54143 5.72913L4.54418 5.62417C4.5112 6.25181 4.69843 6.83504 5.13021 7.25664C5.54538 7.66202 6.08076 7.81424 6.55816 7.81424V5.81424ZM5.5428 4.67665H5.4881V6.67665H5.5428V4.67665ZM4.64183 5.14389C4.3213 5.65304 3.99129 5.81424 3.55344 5.81424V7.81424C4.76208 7.81424 5.69452 7.22578 6.33437 6.20941L4.64183 5.14389ZM3.55344 5.81424C3.41465 5.81424 3.30722 5.76375 3.23276 5.6869C3.16165 5.61351 3.07225 5.46491 3.07225 5.18542H1.07225C1.07225 6.72892 2.17631 7.81424 3.55344 7.81424V5.81424ZM3.07225 5.18542C3.07225 4.14813 3.95422 3.1204 5.32288 3.1204V1.1204C2.87784 1.1204 1.07225 3.01558 1.07225 5.18542H3.07225ZM5.32288 3.1204C5.7932 3.1204 6.17628 3.21517 6.39098 3.30878L7.19025 1.47543C6.69213 1.25827 6.03194 1.1204 5.32288 1.1204V3.1204ZM5.80985 2.19691L5.34403 4.53744L7.30556 4.92783L7.77138 2.5873L5.80985 2.19691ZM5.34597 4.52793C5.23475 5.05973 5.17926 5.62382 5.32641 6.11007C5.40675 6.37553 5.56015 6.65826 5.83361 6.87333C6.11009 7.09078 6.4244 7.17228 6.70648 7.18056L6.76516 5.18142C6.821 5.18306 6.94512 5.20306 7.06999 5.30127C7.19185 5.39711 7.23223 5.50287 7.24068 5.53077C7.24686 5.5512 7.23401 5.52018 7.23803 5.40739C7.2419 5.29904 7.26015 5.14517 7.30362 4.93735L5.34597 4.52793ZM6.71772 7.18083C7.50363 7.19505 8.15328 6.71974 8.55971 6.13718C8.97881 5.53644 9.2181 4.73329 9.2181 3.81458H7.2181C7.2181 4.39579 7.06641 4.78218 6.91944 4.99284C6.7598 5.22167 6.66831 5.1796 6.75391 5.18115L6.71772 7.18083ZM9.2181 3.81458C9.2181 2.66381 8.84826 1.58891 8.06618 0.798315C7.28077 0.00435388 6.17649 -0.405035 4.89712 -0.405035V1.59497C5.74479 1.59497 6.30101 1.8578 6.64433 2.20485C6.99098 2.55527 7.2181 3.09018 7.2181 3.81458H9.2181ZM4.89712 -0.405035C2.11511 -0.405035 -0.218104 1.70495 -0.218104 4.88802H1.7819C1.7819 2.82039 3.20878 1.59497 4.89712 1.59497V-0.405035ZM-0.218104 4.88802C-0.218104 6.20848 0.245197 7.3524 1.0908 8.16451C1.93077 8.97121 3.07284 9.37891 4.30733 9.37891V7.37891C3.51212 7.37891 2.89147 7.12089 2.47616 6.72202C2.06646 6.32855 1.7819 5.72702 1.7819 4.88802H-0.218104ZM4.30733 9.37891C5.20919 9.37891 6.10604 9.20219 6.84666 8.81077L5.91215 7.04253C5.52699 7.24608 4.96945 7.37891 4.30733 7.37891V9.37891ZM5.44908 8.29338L5.66817 8.84919L7.52883 8.11574L7.30973 7.55992L5.44908 8.29338ZM6.11723 1.93435C5.91189 1.87614 5.5853 1.8059 5.15876 1.8059V3.8059C5.36198 3.8059 5.50214 3.83879 5.57179 3.85854L6.11723 1.93435ZM5.15876 1.8059C3.32979 1.8059 1.9771 3.39881 1.9771 5.13333H3.9771C3.9771 4.35987 4.57261 3.8059 5.15876 3.8059V1.8059ZM1.9771 5.13333C1.9771 5.58368 2.09631 6.08662 2.44698 6.4922C2.8161 6.9191 3.33654 7.11615 3.88296 7.11615V5.11615C3.84636 5.11615 3.84872 5.1101 3.87452 5.12096C3.887 5.12621 3.9022 5.13432 3.91824 5.14596C3.93427 5.1576 3.94832 5.17073 3.95989 5.1841C3.98357 5.21149 3.98859 5.23007 3.98679 5.22442C3.9846 5.2175 3.9771 5.1888 3.9771 5.13333H1.9771ZM3.88296 7.11615C4.68266 7.11615 5.31359 6.64887 5.71058 6.19978C6.11979 5.73688 6.4275 5.13537 6.53901 4.54271L4.57349 4.17291C4.53424 4.38156 4.40302 4.65921 4.21213 4.87515C4.00903 5.10491 3.87869 5.11615 3.88296 5.11615V7.11615ZM6.53735 4.55134L6.82561 3.08997L4.86342 2.70292L4.57515 4.16429L6.53735 4.55134Z" fill="#EDEDED" mask="url(#path-1-inside-1)"/>
</svg>
