<svg width="130" height="25" viewBox="0 0 130 25" fill="none"
	xmlns="http://www.w3.org/2000/svg">
	<g clip-path="url(#clip0)">
		<path d="M10.0137 5.00014V13.5044C10.0137 14.8801 9.67355 15.9015 8.99322 16.5685C8.6318 16.9645 8.13216 17.2564 7.49434 17.4439V19.8827C8.0046 19.8202 8.45109 19.7159 8.83378 19.57C9.62043 19.2991 10.3008 18.8926 10.8748 18.3507C11.4489 17.7462 11.874 17.0479 12.1504 16.2559C12.4693 15.4429 12.6288 14.4841 12.6288 13.3794V5H10.0137V5.00014ZM2.5832 5.03136V13.5356C2.5832 14.8697 2.92338 15.891 3.60371 16.5997C4.00767 16.9958 4.50731 17.2771 5.10263 17.4439V19.9139C4.74121 19.8722 4.29476 19.768 3.76319 19.6013C2.95532 19.3095 2.28558 18.8926 1.75405 18.3507C1.15873 17.8088 0.722889 17.1209 0.446494 16.2871C0.148856 15.5367 0 14.5779 0 13.4107V5.03125H2.58316L2.5832 5.03136ZM27.2155 11.2221V5.00014H24.5366V19.9453H27.2155V11.2221V11.2221ZM38.8685 19.9139H41.5154V11.9411L38.8685 8.28304V19.9141V19.9139ZM49.4564 5.03136V15.3177L41.9622 5.03136H39.092L49.8711 19.9141H52.0715V5.03136H49.4564V5.03136ZM60.5671 5.00014H57.6969L63.246 19.9141H66.1481L62.9271 10.972L60.5671 5.00014ZM72.3028 5.00014H69.4964L66.1797 12.9417L67.5511 16.5061L72.3028 5.00014ZM78.9809 5.03136H90.3343V7.40755H78.9809V5.03136ZM78.9809 17.5377H90.3021V19.9139H78.9809V17.5377ZM78.9809 11.2221H89.2179V13.567H78.9809V11.2221ZM106.26 5.03136C105.091 5.03136 104.007 5.21889 103.008 5.59408C102.03 5.96927 101.179 6.49037 100.456 7.15739C99.7546 7.7827 99.2019 8.57474 98.7979 9.53359C98.4578 10.3465 98.2664 11.2324 98.2239 12.1912V13.1292H101.03V12.1912C101.073 11.4825 101.19 10.9093 101.381 10.4715C101.636 9.86708 101.987 9.32516 102.433 8.84576C102.965 8.36636 103.518 8.01202 104.092 7.78274C104.751 7.53262 105.474 7.40755 106.26 7.40755H110.279V5.03136H106.26H106.26ZM107.472 12.0661L107.472 12.6601H107.504C107.462 13.3271 107.334 13.942 107.122 14.5048C106.845 15.151 106.494 15.6825 106.069 16.0994C105.602 16.558 105.049 16.9123 104.411 17.1624C103.752 17.4126 103.029 17.5376 102.242 17.5376H98.224V19.9138H102.242C103.412 19.9138 104.496 19.7262 105.495 19.351C106.473 18.9758 107.324 18.4547 108.047 17.7877C108.791 17.0582 109.343 16.2661 109.705 15.4116C110.088 14.5778 110.279 13.6607 110.279 12.6602V12.0661H107.472H107.472ZM125.184 7.47019H130V5.03144H117.69V7.47019H125.184ZM122.506 9.90902H125.185V19.9141H122.506V9.90902Z" fill="#252A34"/>
	</g>
	<defs>
		<clipPath id="clip0">
			<rect width="130" height="24.9453" fill="white"/>
		</clipPath>
	</defs>
</svg>
