<svg width="13" height="18" viewBox="0 0 13 18" fill="none"
	xmlns="http://www.w3.org/2000/svg">
	<path d="M13 5.63004C12.7636 2.77004 11.0559 1.08595 8.27273 0.997314H3.54545C3.23202 0.997314 2.93142 1.12183 2.70978 1.34346C2.48815 1.56509 2.36364 1.86569 2.36364 2.17913V8.67913H1.18182C0.86838 8.67913 0.56778 8.80365 0.346146 9.02528C0.124513 9.24691 0 9.54751 0 9.86095C0 10.1744 0.124513 10.475 0.346146 10.6966C0.56778 10.9183 0.86838 11.0428 1.18182 11.0428H2.36364V12.2246H1.18182C0.86838 12.2246 0.56778 12.3491 0.346146 12.5707C0.124513 12.7924 0 13.093 0 13.4064C0 13.7198 0.124513 14.0204 0.346146 14.2421C0.56778 14.4637 0.86838 14.5882 1.18182 14.5882H2.36364V16.361C2.36364 16.6744 2.48815 16.975 2.70978 17.1966C2.93142 17.4183 3.23202 17.5428 3.54545 17.5428C3.85889 17.5428 4.15949 17.4183 4.38113 17.1966C4.60276 16.975 4.72727 16.6744 4.72727 16.361V11.0428H8.31409C11.0736 10.9541 12.87 9.16368 13 6.3155V5.72459C13 5.69504 13 5.65959 13 5.63004ZM8.27273 8.67913H4.72727V3.36095H8.23136C9.75 3.40822 10.4886 4.15868 10.6364 5.77777V6.26231C10.5655 7.84004 9.77954 8.63186 8.27273 8.67913Z" fill="#222222"/>
	<path d="M9.45472 12.2244H6.50018C6.18674 12.2244 5.88614 12.3489 5.66451 12.5705C5.44287 12.7921 5.31836 13.0927 5.31836 13.4062C5.31836 13.7196 5.44287 14.0202 5.66451 14.2419C5.88614 14.4635 6.18674 14.588 6.50018 14.588H9.45472C9.76816 14.588 10.0688 14.4635 10.2904 14.2419C10.512 14.0202 10.6365 13.7196 10.6365 13.4062C10.6365 13.0927 10.512 12.7921 10.2904 12.5705C10.0688 12.3489 9.76816 12.2244 9.45472 12.2244Z" fill="#222222"/>
</svg>
