<svg width="16" height="17" viewBox="0 0 16 17" fill="none"
	xmlns="http://www.w3.org/2000/svg">
	<path d="M12 3.16668H11.3333V2.50001C11.3333 2.3232 11.2631 2.15363 11.1381 2.02861C11.013 1.90358 10.8435 1.83334 10.6667 1.83334C10.4899 1.83334 10.3203 1.90358 10.1953 2.02861C10.0702 2.15363 10 2.3232 10 2.50001V3.16668H6V2.50001C6 2.3232 5.92976 2.15363 5.80474 2.02861C5.67971 1.90358 5.51014 1.83334 5.33333 1.83334C5.15652 1.83334 4.98695 1.90358 4.86193 2.02861C4.7369 2.15363 4.66667 2.3232 4.66667 2.50001V3.16668H4C3.46957 3.16668 2.96086 3.37739 2.58579 3.75246C2.21071 4.12754 2 4.63624 2 5.16668V12.5C2 13.0304 2.21071 13.5392 2.58579 13.9142C2.96086 14.2893 3.46957 14.5 4 14.5H12C12.5304 14.5 13.0391 14.2893 13.4142 13.9142C13.7893 13.5392 14 13.0304 14 12.5V5.16668C14 4.63624 13.7893 4.12754 13.4142 3.75246C13.0391 3.37739 12.5304 3.16668 12 3.16668ZM5.33333 12.5C5.20148 12.5 5.07259 12.4609 4.96295 12.3877C4.85332 12.3144 4.76787 12.2103 4.71741 12.0885C4.66696 11.9666 4.65375 11.8326 4.67948 11.7033C4.7052 11.574 4.76869 11.4552 4.86193 11.3619C4.95516 11.2687 5.07395 11.2052 5.20327 11.1795C5.33259 11.1538 5.46664 11.167 5.58846 11.2174C5.71027 11.2679 5.81439 11.3533 5.88765 11.463C5.9609 11.5726 6 11.7015 6 11.8333C6 12.0102 5.92976 12.1797 5.80474 12.3047C5.67971 12.4298 5.51014 12.5 5.33333 12.5ZM5.33333 9.83334C5.20148 9.83334 5.07259 9.79424 4.96295 9.72099C4.85332 9.64774 4.76787 9.54362 4.71741 9.4218C4.66696 9.29998 4.65375 9.16594 4.67948 9.03662C4.7052 8.9073 4.76869 8.78851 4.86193 8.69527C4.95516 8.60204 5.07395 8.53854 5.20327 8.51282C5.33259 8.4871 5.46664 8.5003 5.58846 8.55076C5.71027 8.60122 5.81439 8.68666 5.88765 8.7963C5.9609 8.90593 6 9.03482 6 9.16668C6 9.34349 5.92976 9.51306 5.80474 9.63808C5.67971 9.76311 5.51014 9.83334 5.33333 9.83334ZM8 12.5C7.86815 12.5 7.73925 12.4609 7.62962 12.3877C7.51999 12.3144 7.43454 12.2103 7.38408 12.0885C7.33362 11.9666 7.32042 11.8326 7.34614 11.7033C7.37187 11.574 7.43536 11.4552 7.5286 11.3619C7.62183 11.2687 7.74062 11.2052 7.86994 11.1795C7.99926 11.1538 8.13331 11.167 8.25512 11.2174C8.37694 11.2679 8.48106 11.3533 8.55431 11.463C8.62757 11.5726 8.66667 11.7015 8.66667 11.8333C8.66667 12.0102 8.59643 12.1797 8.4714 12.3047C8.34638 12.4298 8.17681 12.5 8 12.5ZM8 9.83334C7.86815 9.83334 7.73925 9.79424 7.62962 9.72099C7.51999 9.64774 7.43454 9.54362 7.38408 9.4218C7.33362 9.29998 7.32042 9.16594 7.34614 9.03662C7.37187 8.9073 7.43536 8.78851 7.5286 8.69527C7.62183 8.60204 7.74062 8.53854 7.86994 8.51282C7.99926 8.4871 8.13331 8.5003 8.25512 8.55076C8.37694 8.60122 8.48106 8.68666 8.55431 8.7963C8.62757 8.90593 8.66667 9.03482 8.66667 9.16668C8.66667 9.34349 8.59643 9.51306 8.4714 9.63808C8.34638 9.76311 8.17681 9.83334 8 9.83334ZM10.6667 9.83334C10.5348 9.83334 10.4059 9.79424 10.2963 9.72099C10.1867 9.64774 10.1012 9.54362 10.0507 9.4218C10.0003 9.29998 9.98709 9.16594 10.0128 9.03662C10.0385 8.9073 10.102 8.78851 10.1953 8.69527C10.2885 8.60204 10.4073 8.53854 10.5366 8.51282C10.6659 8.4871 10.8 8.5003 10.9218 8.55076C11.0436 8.60122 11.1477 8.68666 11.221 8.7963C11.2942 8.90593 11.3333 9.03482 11.3333 9.16668C11.3333 9.34349 11.2631 9.51306 11.1381 9.63808C11.013 9.76311 10.8435 9.83334 10.6667 9.83334ZM12.6667 7.16668H3.33333V5.16668C3.33333 4.98987 3.40357 4.8203 3.5286 4.69527C3.65362 4.57025 3.82319 4.50001 4 4.50001H4.66667V5.16668C4.66667 5.34349 4.7369 5.51306 4.86193 5.63808C4.98695 5.76311 5.15652 5.83334 5.33333 5.83334C5.51014 5.83334 5.67971 5.76311 5.80474 5.63808C5.92976 5.51306 6 5.34349 6 5.16668V4.50001H10V5.16668C10 5.34349 10.0702 5.51306 10.1953 5.63808C10.3203 5.76311 10.4899 5.83334 10.6667 5.83334C10.8435 5.83334 11.013 5.76311 11.1381 5.63808C11.2631 5.51306 11.3333 5.34349 11.3333 5.16668V4.50001H12C12.1768 4.50001 12.3464 4.57025 12.4714 4.69527C12.5964 4.8203 12.6667 4.98987 12.6667 5.16668V7.16668Z" fill="#0984E3"/>
</svg>
